<svg id="ic_addPeople_n" xmlns="http://www.w3.org/2000/svg" width="14" height="14" viewBox="0 0 14 14">
  <rect id="사각형_1759" data-name="사각형 1759" width="14" height="14" transform="translate(0)" fill="#a3a3a3" opacity="0"/>
  <g id="그룹_300" data-name="그룹 300" transform="translate(-501.242 -593.821)">
    <path id="패스_970" data-name="패스 970" d="M506.39,601.251a2.715,2.715,0,1,0-2.724-2.705A2.715,2.715,0,0,0,506.39,601.251Z" transform="translate(0.258 -0.958)" fill="#a3a3a3"/>
    <path id="패스_971" data-name="패스 971" d="M507.2,601.854l-1.087,0a4.886,4.886,0,0,0-4.869,4.9v.325l10.858-.038v-.326A4.885,4.885,0,0,0,507.2,601.854Z" transform="translate(0 -0.315)" fill="#a3a3a3"/>
    <path id="패스_972" data-name="패스 972" d="M515.242,601.607l0-1.2-1.536.005-.005-1.537-1.2,0,.005,1.536-1.536.005,0,1.2,1.536-.005.005,1.536,1.2,0-.005-1.536Z" transform="translate(0 -0.552)" fill="#a3a3a3"/>
  </g>
</svg>
