<svg id="ic_message_s" xmlns="http://www.w3.org/2000/svg" width="14" height="14" viewBox="0 0 14 14">
  <rect id="사각형_1756" data-name="사각형 1756" width="14" height="14" fill="#4460e3" opacity="0"/>
  <g id="Icon_Chat_Room" data-name="Icon Chat Room">
    <path id="합치기_11" data-name="합치기 11" d="M558.5,466.941h-3.944l1.671-1.829h5.015a.914.914,0,0,0,.914-.914v-5.484h.914a.914.914,0,0,1,.914.914v6.4a.916.916,0,0,1-.914.916h-1.828v2.741Zm-5.772-3.03H550.9a.914.914,0,0,1-.914-.914v-6.4a.916.916,0,0,1,.914-.914h9.141a.915.915,0,0,1,.914.914h0V463a.914.914,0,0,1-.914.914h-4.57l-2.742,2.742Z" transform="translate(-549.988 -455.684)" fill="#4460e3"/>
  </g>
</svg>
