<svg id="ic_close" xmlns="http://www.w3.org/2000/svg" width="14" height="14" viewBox="0 0 14 14">
  <rect id="사각형_1839" data-name="사각형 1839" width="14" height="14" fill="#ed3a3a" opacity="0"/>
  <path id="패스_987" data-name="패스 987" d="M432.449,800.741h-.511v-1.08a3.347,3.347,0,0,0-6.694,0v1.08h-.511a2.066,2.066,0,0,0-2.064,2.064v5.446a2.066,2.066,0,0,0,2.064,2.064h7.716a2.066,2.066,0,0,0,2.064-2.064V802.8A2.066,2.066,0,0,0,432.449,800.741Zm-3.389,5.689a.354.354,0,0,1,.01.047v.9a.479.479,0,0,1-.958,0v-.9a.354.354,0,0,1,.01-.047,1.436,1.436,0,1,1,.938,0Zm1.441-5.689h-3.82v-1.08a1.91,1.91,0,1,1,3.82,0Z" transform="translate(-421.669 -796.315)" fill="#ed3a3a"/>
</svg>
