<svg id="ic_info_s" xmlns="http://www.w3.org/2000/svg" width="14" height="14" viewBox="0 0 14 14">
  <rect id="사각형_1758" data-name="사각형 1758" width="14" height="14" transform="translate(0)" fill="#4460e3" opacity="0"/>
  <g id="그룹_299" data-name="그룹 299" transform="translate(-427.936 -594.422)">
    <path id="패스_967" data-name="패스 967" d="M439.3,596.538h-3.228V596.4a.472.472,0,0,0-.468-.476h-1.342a.473.473,0,0,0-.469.476v.139h-3.228a2.656,2.656,0,0,0-2.632,2.674v5.037a2.656,2.656,0,0,0,2.632,2.674H439.3a2.657,2.657,0,0,0,2.633-2.674v-5.037A2.657,2.657,0,0,0,439.3,596.538Zm1.528,7.711A1.541,1.541,0,0,1,439.3,605.8h-8.735a1.541,1.541,0,0,1-1.527-1.551v-5.037a1.541,1.541,0,0,1,1.527-1.551H433.8v.082a.473.473,0,0,0,.469.476h1.342a.472.472,0,0,0,.468-.476v-.082H439.3a1.541,1.541,0,0,1,1.528,1.551Z" fill="#4460e3"/>
    <path id="패스_968" data-name="패스 968" d="M432.3,601.4a1.12,1.12,0,1,0-1.12-1.12A1.119,1.119,0,0,0,432.3,601.4Z" transform="translate(0 0.065)" fill="#4460e3"/>
    <path id="패스_969" data-name="패스 969" d="M432.525,601.739h-.448a2.015,2.015,0,0,0-2.016,2.015v.135h4.479v-.135A2.015,2.015,0,0,0,432.525,601.739Z" transform="translate(0 0.115)" fill="#4460e3"/>
    <rect id="사각형_1735" data-name="사각형 1735" width="4.241" height="0.868" transform="translate(435.474 599.557)" fill="#4460e3"/>
    <rect id="사각형_1736" data-name="사각형 1736" width="4.241" height="0.868" transform="translate(435.474 601.293)" fill="#4460e3"/>
    <rect id="사각형_1737" data-name="사각형 1737" width="4.241" height="0.868" transform="translate(435.474 603.028)" fill="#4460e3"/>
  </g>
</svg>
