<svg id="ic_open" xmlns="http://www.w3.org/2000/svg" width="14" height="14" viewBox="0 0 14 14">
  <rect id="사각형_1841" data-name="사각형 1841" width="14" height="14" transform="translate(0 0)" fill="#2cc650" opacity="0"/>
  <path id="패스_986" data-name="패스 986" d="M496.888,800.148h-.51v-1.077a3.348,3.348,0,0,0-6.53-1.04.719.719,0,0,0,1.367.447,1.909,1.909,0,0,1,3.724.593v1.077h-5.766a2.068,2.068,0,0,0-2.065,2.065v5.445a2.068,2.068,0,0,0,2.065,2.065h7.715a2.068,2.068,0,0,0,2.065-2.065v-5.445A2.068,2.068,0,0,0,496.888,800.148ZM493.5,805.84a.327.327,0,0,1,.009.045v.9a.48.48,0,1,1-.959,0v-.9a.327.327,0,0,1,.009-.045,1.439,1.439,0,1,1,.941,0Z" transform="translate(-486.108 -795.723)" fill="#2cc650"/>
</svg>
