<svg id="ic_setting_s" xmlns="http://www.w3.org/2000/svg" width="14" height="14" viewBox="0 0 14 14">
  <rect id="사각형_1757" data-name="사각형 1757" width="14" height="14" fill="#4460e3" opacity="0"/>
  <path id="패스_979" data-name="패스 979" d="M615.325,464.3l1.991-.694v-1.749l-1.991-.693a5.012,5.012,0,0,0-.209-.555c-.032-.076-.068-.15-.106-.223-.017-.036-.035-.071-.055-.107l.96-1.834-1.225-1.225-1.8.941a5.174,5.174,0,0,0-1.043-.447l-.661-1.982h-1.75l-.693,1.991c-.145.044-.285.1-.423.154h0c-.048.019-.1.038-.142.059l-.107.049-.106.052c-.035.017-.071.035-.107.055l-1.834-.96-1.314,1.313.961,1.832c-.038.071-.073.142-.107.214s-.064.142-.093.214h0c-.063.151-.122.3-.171.46l-1.991.692V463.6l1.991.693a5.155,5.155,0,0,0,.31.77,1.96,1.96,0,0,1,.062.2l-.963,1.838,1.226,1.225,1.837-.962a3.107,3.107,0,0,0,.795.312c.058.021.116.041.176.059l.693,1.991h1.75l.693-1.991a5.245,5.245,0,0,0,.763-.306,1.774,1.774,0,0,1,.207-.065l1.837.962,1.225-1.225-.961-1.837a3.118,3.118,0,0,0,.313-.8C615.289,464.414,615.307,464.357,615.325,464.3Zm-4.914,1.057h-.1a2.578,2.578,0,0,1-2.625-2.53v-.094a2.579,2.579,0,0,1,2.53-2.626h.095a2.579,2.579,0,0,1,2.626,2.53v.1A2.579,2.579,0,0,1,610.412,465.355Z" transform="translate(-603.316 -455.73)" fill="#4460e3"/>
</svg>
